#!OML:ASF G:\JayActor3\Patient Classification 1\Patient 1\Session 5\male.ASF
:FULLY-SPECIFIED
:DEGREES
869
root -37.6417 16.7501 -8.00457 458.527 -81.424 -461.49
lowerback -0.224749 -0.0917975 9.84409
upperback 1.91163 -0.331121 1.20867
thorax 2.07921 -0.0294799 -4.26662
lowerneck -6.33424 -0.243753 2.49377
upperneck 3.92763 -0.630891 1.42399
head 2.32669 -0.23668 -0.000663022
rclavicle 3.99433e-015 -1.39149e-014
rhumerus -30.5421 0.163255 -89.3081
rradius 37.0494
rwrist -4.069
rhand -19.8997 -8.31681
rfingers 7.12502
rthumb 6.43665 -38.199
lclavicle 3.99433e-015 -1.39149e-014
lhumerus -33.1151 3.88571 84.9191
lradius 30.2668
lwrist 18.0893
lhand -16.8325 12.94
lfingers 7.12502
lthumb 9.39696 42.7105
rfemur 9.39627 0.935418 37.1408
rtibia 21.2747
rfoot -21.8827 -8.61436
rtoes 5.78118
lfemur -29.1337 5.18416 -14.209
ltibia 28.4324
lfoot -14.2891 8.89134
ltoes -14.9847
870
root -37.7774 16.745 -8.00425 459.765 -81.3191 -462.616
lowerback -0.359764 -0.0356467 9.96055
upperback 1.93968 -0.27682 1.19993
thorax 2.19336 0.00567213 -4.34007
lowerneck -6.47708 -0.209397 2.41223
upperneck 3.9469 -0.588289 1.51249
head 2.36018 -0.213223 0.0427957
rclavicle 7.88927e-016 1.82882e-014
rhumerus -30.4706 0.174846 -89.3953
rradius 36.8826
rwrist -3.85192
rhand -19.8674 -8.3253
rfingers 7.12502
rthumb 6.4678 -38.2065
lclavicle 7.88927e-016 1.82882e-014
lhumerus -33.0766 3.89925 84.8863
lradius 30.1626
lwrist 18.0625
lhand -16.8191 12.9722
lfingers 7.12502
lthumb 9.40986 42.7422
rfemur 10.0433 0.830457 37.1127
rtibia 20.7937
rfoot -21.619 -8.3459
rtoes 5.21192
lfemur -28.8314 5.2508 -14.2565
ltibia 26.5257
lfoot -14.344 8.97396
ltoes -14.9714
871
root -37.9154 16.7396 -8.00263 461.019 -81.2063 -463.752
lowerback -0.512532 0.0163995 10.0883
upperback 1.95757 -0.230276 1.19823
thorax 2.30613 0.0368066 -4.41243
lowerneck -6.57048 -0.177075 2.33797
upperneck 3.94476 -0.544469 1.56371
head 2.37724 -0.190595 0.0734248
rclavicle -1.24862e-015 -6.55989e-015
rhumerus -30.4203 0.198388 -89.472
rradius 36.6926
rwrist -3.61397
rhand -19.8284 -8.33915
rfingers 7.12502
rthumb 6.50552 -38.2192
lclavicle -1.24862e-015 -6.55989e-015
lhumerus -33.0791 3.94492 84.8515
lradius 30.0659
lwrist 18.0271
lhand -16.8066 13.01
lfingers 7.12502
lthumb 9.42199 42.7794
rfemur 10.6968 0.705828 37.0643
rtibia 20.3066
rfoot -21.3178 -8.03656
rtoes 4.71977
lfemur -28.5263 5.22623 -14.2555
ltibia 24.7519
lfoot -14.363 9.11728
ltoes -15.0022
872
root -38.0559 16.7338 -8.0002 462.299 -81.0798 -464.91
lowerback -0.687793 0.0721755 10.2299
upperback 1.97561 -0.182519 1.19926
thorax 2.43238 0.0695305 -4.48942
lowerneck -6.65259 -0.15044 2.28326
upperneck 3.93353 -0.507662 1.58734
head 2.38901 -0.172129 0.0917078
rclavicle 3.05631e-015 2.08724e-014
rhumerus -30.3712 0.213768 -89.5419
rradius 36.4798
rwrist -3.36067
rhand -19.7863 -8.34971
rfingers 7.12502
rthumb 6.54608 -38.2285
lclavicle 3.05631e-015 2.08724e-014
lhumerus -33.0927 3.99257 84.816
lradius 29.9681
lwrist 17.9939
lhand -16.7949 13.054
lfingers 7.12502
lthumb 9.43328 42.8229
rfemur 11.3595 0.592524 37.0159
rtibia 19.8103
rfoot -20.9813 -7.73002
rtoes 4.18754
lfemur -28.2429 5.15118 -14.2106
ltibia 23.1575
lfoot -14.3893 9.28888
ltoes -14.9819
873
root -38.1988 16.7275 -7.99717 463.567 -80.9255 -466.042
lowerback -0.873406 0.129276 10.3987
upperback 1.97573 -0.134436 1.20574
thorax 2.54626 0.101826 -4.57561
lowerneck -6.66428 -0.134592 2.29753
upperneck 3.87864 -0.483969 1.53806
head 2.37277 -0.162236 0.074508
rclavicle 2.49102e-015 -2.56432e-014
rhumerus -30.3543 0.220506 -89.6081
rradius 36.2546
rwrist -3.09969
rhand -19.7465 -8.35428
rfingers 7.12502
rthumb 6.58452 -38.2319
lclavicle 2.49102e-015 -2.56432e-014
lhumerus -33.146 4.04709 84.772
lradius 29.8681
lwrist 17.9513
lhand -16.8018 13.0732
lfingers 7.12502
lthumb 9.42654 42.8424
rfemur 12.0204 0.512363 36.9933
rtibia 19.3106
rfoot -20.6226 -7.44439
rtoes 3.63839
lfemur -28.0088 5.07855 -14.1252
ltibia 21.7778
lfoot -14.3863 9.45567
ltoes -15.0568
